<?xml version="1.0" standalone="no"?>
<!DOCTYPE svg PUBLIC "-//W3C//DTD SVG 20010904//EN"
 "http://www.w3.org/TR/2001/REC-SVG-20010904/DTD/svg10.dtd">
<svg version="1.0" xmlns="http://www.w3.org/2000/svg"
 width="500.000000pt" height="196.000000pt" viewBox="0 0 500.000000 196.000000"
 preserveAspectRatio="xMidYMid meet">

<g transform="translate(0.000000,196.000000) scale(0.100000,-0.100000)"
fill="#000000" stroke="none">
<path d="M1525 1483 c-11 -2 -78 -18 -148 -35 -95 -22 -132 -27 -140 -19 -16
16 -92 14 -106 -3 -10 -11 -8 -17 6 -25 10 -6 15 -11 11 -12 -5 -1 -11 -2 -15
-3 -37 -8 -121 -41 -132 -52 -53 -50 228 -173 554 -242 128 -27 531 -80 539
-71 2 2 18 33 37 69 19 35 57 96 86 135 34 47 47 72 39 77 -50 28 -672 193
-705 187 -3 -1 -15 -3 -26 -6z m178 -49 c48 -9 87 -20 87 -24 0 -4 -8 -14 -17
-22 -14 -12 -63 -19 -203 -27 -102 -7 -203 -14 -225 -17 l-40 -6 34 36 c35 37
93 61 179 76 54 9 64 8 185 -16z m-398 -49 c-43 -36 -65 -48 -65 -35 0 5 -5 9
-11 8 -6 -2 -13 2 -16 9 -3 7 15 18 44 27 71 22 82 19 48 -9z m540 5 c4 -6 -5
-10 -20 -10 -15 0 -24 4 -20 10 3 6 12 10 20 10 8 0 17 -4 20 -10z m52 -6 c-3
-3 -12 -4 -19 -1 -8 3 -5 6 6 6 11 1 17 -2 13 -5z m-698 -33 c18 -33 -10 -46
-64 -31 -25 7 -45 16 -45 20 0 7 58 27 87 29 7 1 17 -8 22 -18z m-132 -67
c-12 -13 -37 6 -37 28 l0 22 22 -21 c12 -13 19 -25 15 -29z m53 25 c12 -7 11
-8 -5 -8 -11 0 -29 7 -40 15 -19 16 -19 16 5 9 14 -4 32 -11 40 -16z"/>
<path d="M646 1258 c-48 -29 -121 -80 -163 -113 l-75 -59 33 -29 34 -28 50 52
49 52 -24 9 c-24 9 -23 10 28 43 30 18 60 31 68 28 8 -3 23 2 32 11 9 9 29 26
45 37 26 19 37 49 18 49 -4 0 -47 -24 -95 -52z"/>
<path d="M2333 1283 c-34 -7 -96 -84 -148 -184 -25 -49 -45 -89 -43 -89 2 0
34 -11 72 -24 39 -13 75 -22 80 -21 6 2 24 6 40 10 29 6 29 6 13 -19 -22 -33
-22 -34 7 -29 16 3 28 15 35 34 l10 30 88 -3 c83 -3 88 -2 91 18 2 16 15 25
50 34 26 7 71 22 100 33 l54 19 -33 34 c-83 86 -253 165 -346 163 -27 -1 -58
-4 -70 -6z m152 -33 c13 -6 15 -9 5 -9 -8 0 -22 4 -30 9 -18 12 -2 12 25 0z
m217 -127 c18 -16 25 -43 10 -43 -5 0 -21 14 -37 30 -25 26 -26 30 -10 30 10
0 27 -7 37 -17z"/>
<path d="M2790 1066 c0 -18 51 -39 82 -34 20 4 16 8 -25 26 -57 26 -57 26 -57
8z"/>
<path d="M355 989 c-4 -13 -25 -136 -25 -151 0 -5 -19 -8 -42 -8 -69 -1 -131
-17 -146 -37 -17 -22 -10 -114 11 -146 35 -52 579 -285 841 -361 74 -21 168
-27 183 -12 3 3 25 -6 48 -20 42 -24 43 -24 48 -4 3 11 1 23 -4 26 -14 8 -10
24 6 24 26 0 16 14 -21 30 -33 14 -34 16 -20 35 12 15 18 17 24 7 5 -7 16 -10
25 -6 9 3 17 1 17 -4 0 -12 96 -8 145 6 25 7 31 15 37 53 8 45 26 89 42 100 5
4 19 6 32 4 13 -1 24 3 25 9 0 6 4 2 9 -9 5 -11 9 -15 9 -8 1 7 7 10 15 7 8
-3 17 0 21 5 3 6 11 8 17 5 7 -5 8 -2 3 6 -6 10 -4 12 9 7 9 -4 15 -3 12 2 -3
5 1 12 10 15 15 6 12 20 -4 22 -4 0 -15 4 -24 8 -9 4 -22 8 -30 10 -7 1 -18 5
-24 8 -13 9 -45 4 -73 -12 -14 -7 -27 -7 -39 -1 -10 5 -101 33 -202 61 -218
61 -535 171 -711 246 -69 30 -129 54 -134 54 -5 0 2 -12 16 -27 17 -20 10 -17
-26 12 -27 21 -56 43 -62 48 -9 6 -14 5 -18 -4z m-7 -239 c0 -9 -3 -7 -8 5 -5
11 -8 29 -8 40 0 16 2 15 8 -5 4 -14 8 -32 8 -40z m78 -77 c-7 -8 -63 26 -69
41 -3 8 9 4 34 -12 21 -14 37 -27 35 -29z"/>
<path d="M1750 904 c-41 -19 -77 -38 -80 -40 -12 -13 29 -22 74 -17 l51 5 -25
-22 c-18 -16 -10 -14 30 9 39 21 54 36 52 48 -2 13 -1 15 6 5 7 -11 19 -9 57
10 47 23 47 23 19 29 -68 15 -110 9 -184 -27z"/>
<path d="M3102 920 c0 -14 2 -19 5 -12 2 6 2 18 0 25 -3 6 -5 1 -5 -13z"/>
<path d="M880 911 c0 -16 4 -19 21 -13 28 11 29 26 2 30 -18 3 -23 -2 -23 -17z"/>
<path d="M2785 885 c-55 -13 -127 -30 -160 -38 l-60 -15 98 1 c80 2 97 -1 97
-13 1 -9 6 -5 15 10 8 14 14 19 15 13 0 -7 6 -13 14 -13 10 0 13 -14 11 -55
-2 -40 1 -55 11 -55 15 0 71 111 80 159 8 37 14 36 -121 6z"/>
<path d="M2363 858 c8 -31 7 -43 -1 -46 -7 -2 -12 -12 -12 -22 0 -26 -11 -29
-40 -14 -25 13 -25 14 -2 14 12 0 22 4 22 9 0 5 -13 7 -29 6 -22 -2 -34 5 -50
25 -45 61 -129 42 -215 -50 -26 -28 -54 -50 -62 -50 -31 0 -104 -23 -104 -32
0 -10 47 -5 94 9 17 5 17 1 -7 -40 -15 -25 -29 -62 -32 -81 -2 -20 -7 -41 -11
-47 -4 -8 6 -10 34 -7 35 3 39 1 29 -11 -10 -12 -9 -14 4 -9 9 4 22 1 28 -5
10 -9 16 -7 27 7 8 11 14 15 14 9 0 -20 -25 -31 -63 -28 -21 2 -35 -1 -31 -6
3 -5 -8 -9 -25 -9 -33 0 -44 -14 -55 -68 -5 -28 -2 -37 17 -53 25 -20 37 -24
37 -10 0 6 10 26 21 46 16 27 24 33 30 23 6 -9 8 -5 7 11 -3 19 2 24 24 25 22
1 27 -3 31 -27 2 -18 -1 -31 -9 -34 -14 -5 -37 -63 -29 -71 3 -3 22 0 42 6 20
6 41 8 47 5 6 -3 8 -3 4 2 -4 4 2 15 13 24 19 16 19 17 -12 54 -29 36 -31 40
-15 55 9 9 16 11 16 6 0 -6 11 -10 25 -9 14 2 23 -1 19 -6 -3 -5 13 -9 36 -9
25 0 39 -4 35 -10 -3 -5 -1 -10 5 -10 15 0 7 -25 -8 -26 -7 -1 -15 -3 -19 -4
-5 -1 -12 -2 -16 -1 -5 1 -5 -3 -2 -9 4 -6 14 -9 24 -5 13 5 14 4 4 -6 -20
-20 -16 -26 17 -24 32 1 55 15 26 15 -16 0 -16 2 2 28 11 15 27 47 35 72 10
28 21 44 29 41 47 -13 87 -17 85 -8 -1 6 4 12 11 13 6 1 15 2 18 3 4 0 0 9 -7
18 -8 9 -9 14 -3 10 7 -4 14 4 19 20 5 21 8 24 16 12 5 -7 9 -9 9 -3 0 6 -3
14 -7 18 -15 15 -13 51 4 63 9 7 13 13 8 13 -5 0 -1 6 10 13 14 11 15 16 5 22
-9 6 -11 4 -5 -5 5 -8 4 -11 -3 -6 -6 4 -8 14 -5 23 5 12 2 15 -10 10 -9 -3
-19 -2 -22 4 -4 5 -1 8 6 7 6 -2 13 2 16 8 2 7 -7 12 -21 12 -14 0 -23 -5 -20
-10 4 -6 -3 -5 -14 1 -12 6 -25 10 -31 9 -9 -3 -11 1 -11 27 0 8 6 12 14 9 11
-4 17 4 21 29 9 45 -1 77 -25 77 -16 0 -17 -4 -7 -42z m-253 -108 c0 -5 -8
-10 -17 -10 -15 0 -16 2 -3 10 19 12 20 12 20 0z m54 -32 c-3 -5 -12 -4 -20 3
-7 6 -11 15 -8 21 3 5 12 4 20 -3 7 -6 11 -15 8 -21z m163 0 c-3 -7 -5 -2 -5
12 0 14 2 19 5 13 2 -7 2 -19 0 -25z m-277 -77 c0 -39 -4 -50 -18 -53 -17 -5
-18 -1 -11 39 15 78 29 85 29 14z m142 7 c-8 -8 -9 -4 -5 13 4 13 8 18 11 10
2 -7 -1 -18 -6 -23z m58 -23 c-7 -8 -22 -15 -34 -15 -20 1 -20 2 4 15 33 19
46 19 30 0z m-65 -33 c-6 -5 -26 -18 -45 -30 l-35 -21 -12 26 c-12 25 -11 25
22 21 18 -2 31 0 29 4 -3 4 7 8 22 8 16 0 24 -4 19 -8z m42 -34 c-3 -7 -5 -2
-5 12 0 14 2 19 5 13 2 -7 2 -19 0 -25z m-321 -125 c-10 -10 -19 5 -10 18 6
11 8 11 12 0 2 -7 1 -15 -2 -18z m12 -53 c-2 -5 -9 -6 -17 -1 -9 6 -11 16 -7
27 7 18 8 18 17 1 6 -10 9 -22 7 -27z"/>
<path d="M3039 887 c-17 -12 -51 -75 -63 -114 -11 -33 12 -29 25 5 7 15 13 21
16 15 3 -10 9 -9 20 3 20 19 32 4 34 -41 1 -22 5 -14 17 31 23 94 1 139 -49
101z"/>
<path d="M2397 786 c-4 -11 -5 -21 -2 -24 3 -3 5 0 5 7 0 9 5 9 20 1 16 -9 18
-8 14 5 -3 8 -10 13 -14 10 -5 -3 -10 0 -12 7 -3 7 -7 5 -11 -6z"/>
<path d="M1437 753 c-38 -19 -66 -37 -63 -40 3 -3 46 -14 96 -24 l91 -19 50
40 c27 21 46 41 41 44 -8 5 -141 37 -145 35 -1 -1 -33 -17 -70 -36z"/>
<path d="M2477 739 c7 -7 15 -10 18 -7 3 3 -2 9 -12 12 -14 6 -15 5 -6 -5z"/>
<path d="M4089 693 c-1 -5 -1 -11 0 -15 1 -11 -43 -5 -52 7 -5 6 -14 2 -26
-12 -23 -28 -31 -29 -32 -5 0 9 -3 12 -5 5 -3 -7 -12 -9 -20 -6 -8 3 -14 -1
-14 -11 0 -18 40 -31 70 -23 11 3 20 1 20 -3 0 -5 10 -12 21 -15 17 -6 18 -9
8 -16 -20 -12 2 -18 81 -23 150 -9 244 -37 200 -59 -6 -3 -5 -4 2 -3 23 4 19
25 -8 39 -18 9 -23 17 -15 21 19 12 -34 47 -66 44 -18 -2 -27 1 -25 10 1 6 -3
12 -9 12 -5 0 -7 5 -4 10 4 6 10 8 15 5 5 -3 12 0 16 6 5 9 -3 10 -27 5 -25
-4 -43 0 -67 14 -33 20 -61 26 -63 13z m26 -12 c3 -5 1 -12 -5 -16 -5 -3 -10
1 -10 9 0 18 6 21 15 7z"/>
<path d="M1730 640 c-26 -51 -25 -60 4 -60 27 0 38 11 59 63 l16 37 -29 0
c-24 0 -33 -7 -50 -40z"/>
<path d="M3370 661 c0 -6 3 -12 8 -12 4 -1 20 -3 36 -5 38 -4 56 -11 56 -22 0
-4 -16 -6 -35 -4 -22 3 -35 0 -35 -7 0 -7 -6 -9 -12 -6 -7 4 -5 0 5 -8 12 -10
30 -14 53 -10 19 3 34 1 34 -4 0 -5 7 -10 15 -10 20 0 19 26 0 33 -11 5 -13
10 -5 19 13 16 6 21 -45 30 -22 4 -48 9 -57 12 -10 2 -18 0 -18 -6z"/>
<path d="M3350 610 c0 -5 5 -10 10 -10 6 0 10 5 10 10 0 6 -4 10 -10 10 -5 0
-10 -4 -10 -10z"/>
<path d="M2830 568 c-36 -4 -71 -9 -77 -10 -18 -2 -16 -6 15 -33 15 -13 44
-27 65 -30 27 -5 37 -11 33 -21 -7 -19 29 -36 84 -40 51 -3 80 -12 80 -25 0
-5 -3 -8 -7 -7 -17 4 -63 -26 -59 -38 3 -8 -5 -14 -22 -16 -18 -2 -26 -8 -24
-18 1 -8 -7 -3 -19 13 -11 15 -27 27 -36 27 -10 0 -12 6 -8 21 6 18 4 20 -15
14 -14 -4 -28 -1 -41 11 -25 23 -137 15 -156 -12 -7 -10 -13 -13 -13 -7 0 15
-60 9 -70 -8 -5 -7 -6 -17 -3 -21 2 -5 -1 -16 -8 -24 -10 -13 -10 -17 2 -25 8
-5 19 -7 26 -4 7 2 15 0 18 -5 3 -5 12 -7 19 -4 16 6 76 -22 91 -42 10 -13 44
-19 95 -15 23 1 24 3 8 15 -21 15 -13 26 18 26 13 0 25 4 29 9 7 12 62 -5 86
-26 18 -15 76 -14 82 2 3 5 23 10 45 9 23 0 39 3 36 8 -5 7 36 13 60 9 5 -1
16 1 25 5 9 4 25 8 36 10 11 2 37 6 58 10 20 3 37 11 37 18 0 6 4 5 9 -3 12
-19 52 -7 84 25 l27 27 -22 22 c-13 12 -25 21 -28 21 -3 0 -16 6 -30 14 -17
10 -56 15 -117 15 -51 0 -93 4 -93 8 0 4 -6 7 -12 6 -22 -4 -98 12 -98 21 0 5
-16 14 -35 20 -19 6 -35 16 -35 21 0 5 -9 9 -19 9 -11 0 -26 7 -35 15 -8 8
-16 14 -18 14 -2 -1 -32 -6 -68 -11z"/>
<path d="M3862 553 c-23 -2 -40 -8 -37 -13 6 -10 -51 -24 -65 -15 -6 4 -7 -1
-3 -12 6 -16 5 -16 -10 -4 -9 7 -17 10 -18 5 0 -5 -2 -18 -4 -30 -4 -19 3 -22
64 -34 56 -10 75 -10 107 1 52 17 64 19 64 8 0 -5 7 -9 15 -9 8 0 15 5 15 10
0 6 6 10 14 10 7 0 19 7 26 15 10 12 10 15 -4 15 -19 0 -22 26 -3 34 6 4 2 4
-10 2 -12 -2 -30 2 -40 10 -18 13 -29 14 -111 7z"/>
<path d="M4215 529 c-4 -5 -18 -14 -31 -19 -16 -6 -22 -14 -17 -25 7 -20 64
-16 103 6 14 7 28 12 33 11 4 -1 7 3 7 8 0 6 -7 10 -15 10 -8 0 -15 5 -15 10
0 13 -57 13 -65 -1z"/>
<path d="M1900 504 c0 -8 5 -12 10 -9 6 3 10 10 10 16 0 5 -4 9 -10 9 -5 0
-10 -7 -10 -16z"/>
<path d="M2142 428 c5 -15 28 -23 28 -10 0 5 -7 13 -16 16 -10 4 -14 1 -12 -6z"/>
<path d="M3475 420 c3 -5 1 -10 -5 -10 -6 0 -9 -4 -6 -8 4 -7 40 -8 56 -2 3 1
8 2 12 1 4 0 5 6 2 14 -7 18 -24 20 -24 3 0 -9 -3 -9 -12 0 -15 15 -32 16 -23
2z"/>
<path d="M2328 383 c6 -2 18 -2 25 0 6 3 1 5 -13 5 -14 0 -19 -2 -12 -5z"/>
<path d="M2278 373 c6 -2 18 -2 25 0 6 3 1 5 -13 5 -14 0 -19 -2 -12 -5z"/>
<path d="M1970 351 c-12 -24 -13 -31 -1 -31 5 0 11 11 13 25 6 30 2 32 -12 6z"/>
<path d="M2167 334 c-4 -4 -17 -7 -29 -8 -13 -1 -22 -7 -20 -15 1 -7 -8 -21
-20 -32 l-23 -20 25 7 c20 5 87 32 98 39 1 1 0 10 -4 19 -6 17 -16 20 -27 10z"/>
<path d="M2530 280 c-6 -11 -8 -20 -6 -20 3 0 10 9 16 20 6 11 8 20 6 20 -3 0
-10 -9 -16 -20z"/>
<path d="M1523 283 c-18 -2 -33 -9 -33 -14 0 -6 4 -8 9 -5 5 3 11 -3 14 -14 3
-11 13 -20 24 -20 10 -1 35 -9 55 -18 27 -13 35 -21 27 -29 -8 -8 0 -14 28
-22 44 -14 123 -53 123 -62 0 -3 -7 -6 -15 -6 -18 0 -85 -35 -85 -44 0 -4 18
-16 40 -28 36 -19 58 -21 201 -21 176 0 183 3 158 60 -16 34 -80 66 -106 51
-10 -5 -30 -4 -52 4 -20 7 -62 21 -95 31 -40 12 -61 25 -69 41 -9 20 -51 46
-112 68 l-20 7 20 8 c17 7 16 9 -10 9 -16 1 -39 3 -50 5 -11 2 -35 1 -52 -1z"/>
<path d="M2220 260 c0 -13 18 -22 24 -11 3 5 -1 11 -9 15 -8 3 -15 1 -15 -4z"/>
<path d="M2460 246 c0 -2 7 -7 16 -10 8 -3 12 -2 9 4 -6 10 -25 14 -25 6z"/>
<path d="M2550 240 c0 -5 5 -10 10 -10 6 0 10 5 10 10 0 6 -4 10 -10 10 -5 0
-10 -4 -10 -10z"/>
<path d="M2598 245 c-13 -13 5 -45 26 -46 30 -2 38 -3 65 -13 14 -5 27 -4 34
3 8 8 6 11 -7 11 -11 0 -16 5 -13 14 4 9 -5 15 -26 19 -18 4 -41 9 -52 12 -11
3 -23 3 -27 0z"/>
<path d="M2200 231 c0 -13 26 -32 33 -24 8 7 -11 33 -24 33 -5 0 -9 -4 -9 -9z"/>
<path d="M2535 210 c3 -5 8 -10 11 -10 2 0 4 5 4 10 0 6 -5 10 -11 10 -5 0 -7
-4 -4 -10z"/>
<path d="M1362 138 c-6 -6 -25 -12 -43 -14 -41 -5 -47 -11 -27 -30 18 -18 124
-29 133 -13 4 5 1 9 -4 9 -6 0 -11 5 -11 11 0 6 14 9 33 7 19 -2 31 -8 30 -15
-4 -17 22 -17 36 0 8 10 7 18 -2 31 -15 20 -128 31 -145 14z"/>
</g>
</svg>
